# xmcd
#
# Track frame offsets: 
#        150
#        20442
#        50266
#        70296
#        100900
#        120567
#        139317
#        166389
#        194746
#        221823
#        243200
#        269182
#        296139
#
# Disc length: 4387 seconds
#
# Revision: 0
# Processed by: cddbd v1.5.2PL0 Copyright (c) Steve Scherf et al.
# Submitted via: ExactAudioCopy v0.99pb4
#
DISCID=d311210d
DTITLE=Thai Thanh - Ngay xua Hoang Thi
DYEAR=1980
DGENRE=Pop
TTITLE0=Ky vat cho em - Pham Duy - Linh Phuong
TTITLE1=Ngay xua Hoang Thi - Pham Duy - Pham Thien Thu
TTITLE2=Nua hon thuong dau - Pham Dinh Chuong - Thanh Tam Tuyen
TTITLE3=Mua thu khong tro lai - Pham Trong
TTITLE4=Con me chieu - Nguyen Minh Khoi
TTITLE5=Ngan thu ao tim - Hoang Trong
TTITLE6=Ngoc Lan - Duong Thieu Tuoc
TTITLE7=Nguoi di qua doi toi - Pham Dinh Chuong - Tran Da Tu
TTITLE8=Nghin trung xa cach - Pham Duy
TTITLE9=Giong song xanh - J. Strauss - Pham Duy
TTITLE10=Nuoc mat roi - Pham Duy
TTITLE11=Ky niem - Pham Duy
TTITLE12=Ben cu and Biet Ly - Anh Viet - Dzoan Man
EXTD=
EXTT0=
EXTT1=
EXTT2=
EXTT3=
EXTT4=
EXTT5=
EXTT6=
EXTT7=
EXTT8=
EXTT9=
EXTT10=
EXTT11=
EXTT12=
PLAYORDER=
